<svg xmlns="http://www.w3.org/2000/svg" viewBox="0 0 1024 1024" role="img" aria-label="Veyra icon">
  <defs>
    <linearGradient id="leftGrad" x1="0.12" y1="0.08" x2="0.92" y2="0.95">
      <stop offset="0%" stop-color="#D8D0C2"/>
      <stop offset="52%" stop-color="#B7AD9E"/>
      <stop offset="100%" stop-color="#8F877C"/>
    </linearGradient>
    <linearGradient id="rightGrad" x1="0.16" y1="0.04" x2="0.88" y2="0.96">
      <stop offset="0%" stop-color="#EEE7DA"/>
      <stop offset="55%" stop-color="#CFC5B6"/>
      <stop offset="100%" stop-color="#9E9588"/>
    </linearGradient>
    <linearGradient id="seamShade" x1="0" y1="0" x2="1" y2="1">
      <stop offset="0%" stop-color="#B8AEA0" stop-opacity="0.15"/>
      <stop offset="100%" stop-color="#756D63" stop-opacity="0.32"/>
    </linearGradient>
  </defs>
  <path d="M 327 260 Q 327 244 340 254 L 485 371 Q 512 391 512 424 L 512 683 Q 512 719 489 748 L 368 625 Q 327 583 327 528 Z" fill="url(#leftGrad)"/>
  <path d="M 697 260 Q 697 244 684 254 L 539 371 Q 512 391 512 424 L 512 683 Q 512 719 535 748 L 656 625 Q 697 583 697 528 Z" fill="url(#rightGrad)"/>
  <path d="M 489 748 Q 512 773 535 748 Q 523 767 512 777 Q 501 767 489 748 Z" fill="url(#seamShade)"/>
</svg>
